<svg xmlns="http://www.w3.org/2000/svg" width="12.629" height="23.61" viewBox="0 0 12.629 23.61"><defs><style>.a{fill:#c0a065;}</style></defs><g transform="translate(-12.5 -2.5)"><g transform="translate(12.5 2.5)"><path class="a" d="M25.129,19.8V9.913a.824.824,0,1,0-1.647,0V19.8a4.667,4.667,0,1,1-9.334,0V7.167a3.02,3.02,0,1,1,6.04,0V18.972a1.373,1.373,0,0,1-2.745,0V8.265a.824.824,0,1,0-1.647,0V18.972a3.02,3.02,0,0,0,6.04,0V7.167a4.667,4.667,0,1,0-9.334,0V19.8a6.314,6.314,0,0,0,12.629,0Z" transform="translate(-12.5 -2.5)"/></g></g></svg>