<svg xmlns="http://www.w3.org/2000/svg" width="37.101" height="37.101" viewBox="0 0 37.101 37.101"><defs><style>.a{fill:#fff;}</style></defs><path class="a" d="M18.55,0A18.554,18.554,0,0,0,2.809,28.369C2.076,30.936.753,35.792.738,35.843a.714.714,0,0,0,.9.869L8.99,34.45A18.551,18.551,0,1,0,18.55,0Zm0,35.674a17.081,17.081,0,0,1-9.083-2.6.713.713,0,0,0-.379-.108.725.725,0,0,0-.21.031L2.458,34.968c.472-1.722,1.319-4.8,1.811-6.514a.716.716,0,0,0-.087-.586A17.125,17.125,0,1,1,18.55,35.674Z"/><path class="a" d="M33.345,25.722c-1.317-.731-2.439-1.465-3.257-2-.625-.408-1.077-.7-1.408-.869a1.621,1.621,0,0,0-1.894.134.713.713,0,0,0-.089.108,10.029,10.029,0,0,1-2.583,2.9,17.179,17.179,0,0,1-4.386-2.84c-2.016-1.68-3.285-3.289-3.471-4.385,1.294-1.331,1.759-2.169,1.759-3.122,0-.982-2.292-5.084-2.706-5.5s-1.353-.48-2.785-.195a.72.72,0,0,0-.365.195c-.173.173-4.23,4.309-2.3,9.322,2.116,5.5,7.548,11.9,14.473,12.935a15.006,15.006,0,0,0,2.215.176c4.074,0,6.478-2.05,7.155-6.116A.711.711,0,0,0,33.345,25.722Zm-8.8,5.269c-7.323-1.1-11.936-8.353-13.353-12.036-1.406-3.653,1.187-6.91,1.837-7.646a5.382,5.382,0,0,1,1.319-.091,25.624,25.624,0,0,1,2.242,4.426c0,.375-.122.9-1.575,2.349a.71.71,0,0,0-.209.5c0,3.736,7.88,8.918,9.275,8.918,1.214,0,2.8-2.04,3.7-3.369a.677.677,0,0,1,.265.083c.257.129.7.42,1.265.788.743.486,1.731,1.131,2.9,1.8C31.674,29.264,30.195,31.84,24.543,30.991Z" transform="translate(-2.676 -2.801)"/></svg>